<svg width="67" height="14" viewBox="0 0 67 14" fill="none" xmlns="http://www.w3.org/2000/svg">
<path d="M0 13.3125L13.3125 0V13.3125H0Z" fill="#333333"/>
<path d="M35.0938 1.3125C35.3438 1.3125 35.5521 1.40625 35.7188 1.59375C35.9062 1.76042 36 1.96875 36 2.21875V12.4375C36 12.6875 35.9062 12.8958 35.7188 13.0625C35.5521 13.2292 35.3438 13.3125 35.0938 13.3125H30.2188C29.9688 13.3125 29.75 13.2292 29.5625 13.0625C29.3958 12.8958 29.3125 12.6875 29.3125 12.4375V2.21875C29.3125 1.96875 29.3958 1.76042 29.5625 1.59375C29.75 1.40625 29.9688 1.3125 30.2188 1.3125H31.3125V0H34V1.3125H35.0938Z" fill="#333333"/>
<path d="M54.6875 5.6875C55.9792 4.41667 57.5312 3.78125 59.3438 3.78125C61.1771 3.78125 62.7292 4.41667 64 5.6875L62.6875 7.03125C61.7708 6.11458 60.6562 5.65625 59.3438 5.65625C58.0312 5.65625 56.9167 6.11458 56 7.03125L54.6875 5.6875ZM57.3438 8.375C57.8854 7.83333 58.5521 7.5625 59.3438 7.5625C60.1354 7.5625 60.8021 7.83333 61.3438 8.375L59.3438 10.375L57.3438 8.375ZM52 3.03125C54.0417 1.01042 56.4896 0 59.3438 0C62.2188 0 64.6667 1.01042 66.6875 3.03125L65.3438 4.375C63.6771 2.72917 61.6771 1.90625 59.3438 1.90625C57.0104 1.90625 55.0104 2.72917 53.3438 4.375L52 3.03125Z" fill="#333333"/>
</svg>
